<?xml version="1.0" encoding="utf-8"?>
<svg width="208.316" height="73.713" viewBox="0 0 61.609 73.713" xmlns="http://www.w3.org/2000/svg">
  <defs>
    <style>.a{fill:#031a62;}.b{fill:#ff8700;}.c{fill:#6a4cd7;}.d{fill:#00a3ff;}.e{fill:#ff003a;}</style>
  </defs>
  <g transform="translate(-140.856 -37.001)">
    <path class="a" d="M233.879,456.284H203.165v9.209l30.714,12.289,30.709-12.289v-9.209Z" transform="translate(-62.309 -367.068)"/>
    <path class="b" d="M203.165,282.047h30.714V251.333H203.165Zm15.358-3.841a11.523,11.523,0,1,1,11.515-11.53v0a11.518,11.518,0,0,1-11.507,11.527Z" transform="translate(-62.309 -214.332)"/>
    <path class="c" d="M323.722,282.048h30.714V251.334H323.722Zm3.587-15.541a16.6,16.6,0,0,0,11.581-11.284.076.076,0,0,1,.074-.058h.216a.081.081,0,0,1,.076.058,16.592,16.592,0,0,0,11.556,11.284.078.078,0,0,1,.056.073v.229a.068.068,0,0,1-.056.069,16.542,16.542,0,0,0-11.556,11.289.079.079,0,0,1-.076.058h-.226a.074.074,0,0,1-.074-.058,16.615,16.615,0,0,0-11.555-11.289.069.069,0,0,1-.058-.069v-.229a.081.081,0,0,1,.043-.073" transform="translate(-152.15 -214.332)"/>
    <path class="d" d="M203.165,393.392h0v-21.5h30.714Z" transform="translate(-62.309 -304.176)"/>
    <path class="e" d="M323.723,393.392l15.31-10.719a.067.067,0,0,1,.089,0l15.315,10.719v-21.5H323.723Z" transform="translate(-152.152 -304.176)"/>
  </g>
</svg>